<?xml version="1.0" encoding="iso-8859-1"?>
<!-- Generator: Adobe Illustrator 19.0.0, SVG Export Plug-In . SVG Version: 6.00 Build 0)  -->
<svg version="1.1" id="Capa_1" xmlns="http://www.w3.org/2000/svg" xmlns:xlink="http://www.w3.org/1999/xlink" x="0px" y="0px"
	 viewBox="0 0 488.914 488.914" style="enable-background:new 0 0 488.914 488.914;" xml:space="preserve">
<g>
	<g>
		<path d="M487.656,195.913c1.7-40,2.2-80-1.9-119.8c-1.2-11.3-5.8-20.7-14.8-19.9c-8.3,0.8-14.4,8.8-15.3,20.4
			c-1.7,20.9-3.6,41.9-3.4,62.8c0.4,33.7,2.4,67.3,3.7,101c-11.5,60.3-4.9,122.1-7.3,183.1c-0.1,2.7,3.4,7,5.8,8.3
			c4.9,2.7,9-0.8,12.1-6c10.3-17,14.8-37.7,16-58.8c2.9-50.7,7.3-101.3,4-152.3C486.956,208.513,487.456,202.213,487.656,195.913z"
			/>
		<path d="M359.256,214.513c-3.4-3.9-6.8-7.9-10.3-11.8c-22.2-24.5-45.2-48.3-71.3-68.6c-7.4-5.8-16.2-8-22.1-1.1
			c-5.4,6.3-5,15.3,1.1,22.8c11,13.4,21.9,27,34.3,39.1c12.5,12.1,25.4,23.8,38.3,35.4c-16.2-1.4-32.4-2.6-48.6-2.4
			c-32.2,0.4-64.4,2.4-96.6,3.7c-57.7-11.5-116.8-4.9-175.2-7.3c-2.6-0.1-6.7,3.4-8,5.8c-2.5,4.9,0.8,9,5.7,12.1
			c16.3,10.3,36.1,14.8,56.2,16c48.5,2.9,97,7.3,145.7,4c6,0.4,12.1,0.8,18.1,1.1c30.4,1.3,60.8,1.9,91.1,0
			c-25.1,22.7-47.5,48.6-72.6,71.4c-1.7,1.5-1.7,6.5-0.7,9c1.9,5,6.8,5.9,12.1,5.1c17.2-2.7,32.5-11.6,45.7-23
			c25.5-22.2,51.7-43.7,75.3-68l0.4-0.4c7.2-7.4,7-19.2-0.4-26.4C371.556,225.413,365.456,219.913,359.256,214.513z"/>
	</g>
</g>
<g>
</g>
<g>
</g>
<g>
</g>
<g>
</g>
<g>
</g>
<g>
</g>
<g>
</g>
<g>
</g>
<g>
</g>
<g>
</g>
<g>
</g>
<g>
</g>
<g>
</g>
<g>
</g>
<g>
</g>
</svg>
