<?xml version="1.0" encoding="iso-8859-1"?>
<!-- Generator: Adobe Illustrator 18.1.1, SVG Export Plug-In . SVG Version: 6.00 Build 0)  -->
<svg version="1.1" id="Capa_1" xmlns="http://www.w3.org/2000/svg" xmlns:xlink="http://www.w3.org/1999/xlink" x="0px" y="0px"
	 viewBox="0 0 161.107 161.107" style="enable-background:new 0 0 161.107 161.107;" xml:space="preserve">
<g>
	<g>
		<path style="fill:#010002;" d="M38.062,121.403c-8.753-8.759-14.392-19.577-15.878-30.467c-1.45-10.591,1.229-19.911,7.56-26.23
			l22.077-22.083l-0.018,17.59c0,1.647,1.343,2.983,2.983,2.983c1.647,0,2.983-1.337,2.983-2.983l0.012-27.424h-27.43
			c-1.647,0-2.983,1.337-2.983,2.983c0,1.647,1.337,2.983,2.983,2.983h16.886L25.514,60.488
			c-7.667,7.667-10.955,18.772-9.255,31.248c1.665,12.178,7.906,24.214,17.572,33.88l34.62,34.62
			c0.591,0.585,1.354,0.871,2.118,0.871c0.764,0,1.528-0.292,2.112-0.871c1.164-1.158,1.164-3.055,0-4.219L38.062,121.403z"/>
		<path style="fill:#010002;" d="M144.845,69.372c-1.659-12.178-7.9-24.214-17.566-33.88l-34.62-34.62
			c-1.164-1.164-3.061-1.164-4.219,0c-1.164,1.158-1.164,3.055,0,4.219l34.62,34.614c8.747,8.759,14.386,19.577,15.878,30.467
			c1.444,10.591-1.235,19.911-7.566,26.23l-22.071,22.083l0.006-17.59c0-1.647-1.343-2.983-2.983-2.983
			c-1.647,0-2.983,1.337-2.983,2.983l-0.006,27.424h27.43c1.647,0,2.983-1.337,2.983-2.983s-1.337-2.983-2.983-2.983h-16.886
			l21.725-21.731C143.264,92.953,146.552,81.861,144.845,69.372z"/>
	</g>
</g>
<g>
</g>
<g>
</g>
<g>
</g>
<g>
</g>
<g>
</g>
<g>
</g>
<g>
</g>
<g>
</g>
<g>
</g>
<g>
</g>
<g>
</g>
<g>
</g>
<g>
</g>
<g>
</g>
<g>
</g>
</svg>
